<svg width="150" height="150" viewBox="0 0 150 150" fill="none" xmlns="http://www.w3.org/2000/svg">
<g clip-path="url(#clip0_116_62)">
<path d="M35.835 64.9771C35.835 64.9771 12.4965 81.4044 11.5837 87.6624L13.335 87.3024C13.335 87.3024 41.283 68.7774 63.4372 66.5274L63.9397 63.7149L35.8357 64.9847L35.835 64.9771ZM72.4725 62.6297L54.0975 75.6684L55.0912 76.4656C55.8412 75.8611 87.7462 66.1172 87.7462 66.1172L94.4737 61.8999C89.9602 62.4624 72.4822 62.6297 72.4822 62.6297H72.4725ZM88.449 78.4007C101.503 78.4007 121.07 65.6162 121.07 65.6162L114.745 64.4124C114.432 64.7252 104.545 64.0659 104.545 64.0659L99.8512 62.7624L88.6387 75.5394L87.726 77.7564C88.5322 77.4286 88.4497 78.4014 88.4497 78.4014L88.449 78.4007ZM131.046 119.172L127.013 120.308L108.381 119.905L96.726 110.841L82.638 114.366L66.3435 112.956L57.219 122.927L40.098 128.042L31.5495 125.391L31.119 125.021L34.956 134.416C34.956 134.416 43.647 143.734 48.501 144.83C53.355 145.925 62.1247 144.751 68.7022 143.732C75.2797 142.714 80.5252 140.357 82.6387 136.53C84.7522 132.703 85.0657 131.597 85.0657 131.597C85.0657 131.597 91.3305 140.444 96.7327 141.463C102.135 142.481 118.186 136.999 118.186 136.999C118.186 136.999 127.974 134.336 129.696 130.97C131.418 127.604 135.961 116.57 135.961 116.57L131.046 119.18V119.172ZM33.342 126.827L33.072 126.702L31.5622 125.4L33.3427 126.827H33.342Z" fill="#CB3349"/>
<path d="M146.874 52.6117L146.724 51.1042L146.563 50.0362C145.218 48.9037 143.69 47.8987 142.099 46.9837C140.374 45.9765 138.571 45.0742 136.729 44.2365L131.134 41.8312L128.285 40.7235L125.409 39.6555L131.42 40.9605L135.275 42.0682C126.191 18.327 104.473 2.86572 80.76 2.86572C57.0473 2.86572 35.3273 18.327 26.2455 42.0682C27.5228 41.6692 28.8083 41.2957 30.0983 40.9605C32.088 40.449 34.0905 39.99 36.1118 39.6555L33.2318 40.7235L30.375 41.8305C28.485 42.5925 26.613 43.3732 24.78 44.2357C22.9425 45.0735 21.1373 45.9757 19.413 46.983C17.823 47.898 16.2953 48.9045 14.9453 50.0355C14.889 50.3782 14.8328 50.748 14.7953 51.1035C14.7353 51.6037 14.679 52.107 14.6453 52.611C14.5568 53.6235 14.5208 54.6382 14.5125 55.656C14.4923 57.6907 14.6295 59.7255 14.8875 61.731C15.165 63.75 15.5355 65.7555 16.0838 67.6935C16.3538 68.6647 16.6598 69.6225 17.0138 70.5495C17.1915 71.0122 17.385 71.4682 17.5868 71.9115C17.6863 72.1292 17.7896 72.3453 17.8965 72.5595L18.0255 72.8055L18.4808 73.0305L19.3838 73.4617L21.1598 74.2867C21.1919 74.2598 21.2227 74.2312 21.252 74.2012L19.5758 67.8165C19.9313 67.719 23.1143 66.8977 28.5998 65.8537C28.1498 65.7697 27.7103 65.6737 27.2708 65.5687C26.022 65.2582 24.7883 64.8787 23.5958 64.3957C22.9958 64.146 22.4198 63.873 21.8633 63.5595C21.3068 63.24 20.7593 62.8785 20.3355 62.3985C26.3625 64.365 38.8155 63.474 49.8855 62.331C60.0105 61.2885 70.158 60.6112 80.358 60.591C90.5595 60.6112 100.711 61.2885 110.831 62.331C121.905 63.4747 134.358 64.3657 140.384 62.3985C139.961 62.8785 139.415 63.2407 138.858 63.5595C138.297 63.8709 137.719 64.1501 137.127 64.3957C135.933 64.8795 134.702 65.2582 133.452 65.5687C133.267 65.6137 133.08 65.6535 132.895 65.6932C138.91 66.8092 142.412 67.716 142.786 67.8157L141.182 73.8907L142.157 73.4602L143.059 73.029L143.514 72.804L143.639 72.558C143.749 72.345 143.854 72.1289 143.953 71.91C144.155 71.4675 144.349 71.01 144.526 70.548C144.881 69.621 145.187 68.6632 145.456 67.692C146.003 65.7532 146.375 63.747 146.652 61.7295C146.911 59.7157 147.047 57.681 147.027 55.6545C147.02 54.6375 146.982 53.6295 146.892 52.6095L146.874 52.6117Z" fill="#F4EDAE"/>
<path d="M87.5903 137.043L85.2008 137.324L83.6558 137.401L83.4743 137.404L84.9143 134.149L87.5903 137.042V137.043ZM89.325 138.811C91.803 141.265 94.8735 142.671 98.253 142.921C92.5755 145.227 87.2265 146.116 83.1053 146.394C78.9968 146.669 74.8313 146.184 70.7498 145.066C71.0467 145.011 71.345 144.963 71.6445 144.924C71.9798 144.883 79.299 143.929 82.5983 139.023H82.908H83.718C84.2655 139.023 84.7643 138.978 85.2885 138.958C86.517 138.851 87.7384 138.675 88.947 138.43L89.325 138.805V138.811Z" fill="#E6CCAD"/>
<path d="M96.348 65.3503L95.562 66.3576C94.1123 68.1906 92.1015 70.5351 89.7165 72.8278L81.1635 72.6951C76.3185 72.6951 71.6723 72.8226 67.2608 73.0378C73.4858 70.4503 80.9828 67.9243 89.0858 66.4063C91.4543 65.9578 93.8858 65.5993 96.3413 65.3503H96.348ZM59.865 68.1418C57.6405 69.7048 55.1273 71.6998 52.6905 74.1193C46.4505 74.7441 41.007 75.5008 36.5153 76.2193C43.4205 73.0453 51.3 70.1241 59.865 68.1343V68.1418ZM136.11 81.0253L133.572 98.7853L121.413 107.302L89.7008 103.696L84.927 87.9763C84.8145 87.6013 84.492 87.3126 84.096 87.2488C82.9208 87.0591 81.8813 86.9623 81.015 86.9623C80.1488 86.9623 79.11 87.0598 77.9288 87.2488C77.5373 87.3133 77.2163 87.5938 77.0993 87.9763L72.4493 103.314L40.914 110.332L28.41 101.575L25.9478 81.6463L27.5798 80.7463L30.186 80.2183L32.5065 99.0231C32.5249 99.168 32.5735 99.3075 32.6492 99.4324C32.7249 99.5574 32.826 99.665 32.946 99.7483L41.5425 105.772C41.7195 105.892 41.9295 105.957 42.1388 105.957C42.2138 105.957 42.2888 105.949 42.3683 105.932L68.2958 100.163C68.3853 100.143 68.472 100.112 68.5538 100.07C68.6758 100.006 68.7839 99.9177 68.8717 99.8113C68.9595 99.7048 69.0253 99.5819 69.0653 99.4498L73.734 84.0763C74.9865 83.7538 78.1943 83.0038 81.0135 83.0038C83.826 83.0038 87.036 83.7538 88.2885 84.0763L92.9573 99.4498C93.0773 99.8488 93.4253 100.134 93.8393 100.183L119.767 103.128C120.018 103.156 120.275 103.09 120.481 102.946L129.083 96.9276C129.198 96.8435 129.295 96.7375 129.369 96.6157C129.443 96.494 129.492 96.3588 129.513 96.2181L131.81 80.1531L136.109 81.0321L136.11 81.0253ZM139.313 69.8878L137.081 78.3628C132.516 77.3563 122.489 75.3816 108.84 74.0526C113.3 72.1513 117.84 69.7663 121.988 66.7776C130.11 67.9251 136.073 69.1551 139.313 69.8878Z" fill="#656C67"/>
<path d="M140.61 86.6746C140.991 86.9896 141.285 87.8026 140.952 91.5931C140.532 96.2341 138.582 104.381 137.375 105.693C136.041 105.951 133.246 105.645 131.541 105.247C131.836 104.077 131.92 103.517 132.158 102.322L135.139 100.237C135.256 100.155 135.355 100.051 135.429 99.9291C135.504 99.8077 135.553 99.6723 135.574 99.5311L137.657 84.9316C138.922 85.6156 140.222 86.3566 140.611 86.6754L140.61 86.6746ZM30.7028 105.729L31.1708 107.304C29.5658 107.775 26.2995 108.227 24.822 107.969C23.5973 106.735 21.312 98.2441 20.8133 93.7351C20.406 90.0826 20.6918 89.2921 21.063 88.9846C21.4943 88.6224 23.109 87.7036 24.5078 86.9544L26.3978 102.292C26.4338 102.587 26.5905 102.847 26.8373 103.017L30.7035 105.73L30.7028 105.729ZM91.0028 105.944L90.8903 106.922C90.8903 106.922 87.4553 110.108 81.9233 110.822C76.3913 111.536 72.0458 108.136 72.0458 108.136C72.2273 108.727 72.4853 110.061 73.7378 111.2C72.264 111.024 70.6725 110.906 69.003 110.906C68.4025 110.906 67.8021 110.922 67.2023 110.951C63.7973 111.129 59.0093 116.276 55.6418 121.462L42.8468 125.39C37.2668 117.665 34.5233 109.758 34.2443 108.941L34.248 108.936L33.918 107.985L35.3528 108.989V108.992L38.8973 111.467L40.0823 112.292C40.2593 112.418 40.4685 112.482 40.6778 112.482C40.7546 112.482 40.8312 112.474 40.9065 112.459L73.4828 105.206C73.848 105.126 74.1428 104.852 74.2515 104.494L78.897 89.1939C79.6995 89.0851 80.403 89.0289 81.0075 89.0289C81.612 89.0289 82.317 89.0851 83.1188 89.1939L87.8993 104.942C88.0208 105.341 88.3673 105.632 88.7768 105.674L91.0043 105.929L91.0028 105.944ZM128.195 105.098L129.247 104.36L128.687 106.532C127.224 111.218 125.499 115.362 123.583 119.024C123.133 119.054 122.683 119.07 122.233 119.069C120.754 119.069 119.243 118.944 117.572 118.792L108.612 117.83L99.507 110.618L99.1283 110.303C98.5005 109.772 97.7783 109.169 96.3405 109.169C95.028 109.169 93.1095 109.647 88.4655 111.05C90.8745 109.25 90.8903 106.925 90.8903 106.925L91.0028 105.946L121.564 109.418C121.816 109.446 122.071 109.382 122.28 109.238L128.186 105.099L128.195 105.098Z" fill="#E6CCAD"/>
<path d="M105.703 40.8007C105.796 43.5194 105.727 48.4462 104.461 53.0594C104.41 53.2372 104.418 53.4194 104.461 53.5874L99.627 53.1374C101.436 49.3469 101.83 45.3104 101.916 43.8884C103.305 42.9007 104.688 41.7164 105.703 40.7939L105.703 40.8007ZM59.5927 43.8944C59.6767 45.3164 60.0712 49.3447 61.8772 53.1322L57.0472 53.5792C57.0907 53.4142 57.096 53.2364 57.0472 53.0587C55.7827 48.4537 55.7182 43.5232 55.8067 40.7999C56.8215 41.7224 58.2067 42.8999 59.5942 43.8944H59.5927Z" fill="#EBD599"/>
<path d="M113.876 94.3043C111.701 93.2573 109.331 94.587 105.005 94.6673C101.786 94.7798 99.0832 94.8158 98.9062 89.76C98.7285 84.6998 100.791 80.5155 104.01 80.4015C107.229 80.2875 110.165 84.3015 110.561 89.349C110.67 90.7395 110.516 91.7543 110.171 92.499C113.168 92.1413 113.846 94.1753 113.876 94.296V94.3043ZM103.76 86.8958C104.668 86.8755 105.391 86.1263 105.376 85.2195C105.36 84.3128 104.611 83.5845 103.699 83.6048C103.483 83.6085 103.27 83.6548 103.072 83.7411C102.874 83.8274 102.695 83.9519 102.545 84.1075C102.395 84.2632 102.277 84.4469 102.198 84.6481C102.119 84.8494 102.081 85.0642 102.085 85.2803C102.1 86.1863 102.85 86.9123 103.76 86.8958Z" fill="#2D3136"/>
<path d="M103.759 86.8889C104.668 86.8723 105.391 86.1222 105.374 85.2136C105.358 84.305 104.608 83.5819 103.699 83.5985C102.791 83.6152 102.067 84.3652 102.084 85.2738C102.101 86.1824 102.851 86.9055 103.759 86.8889Z" fill="#EDF6FA"/>
<path d="M62.613 90.7626C62.6602 95.8229 59.9805 95.5176 56.7585 95.5476L55.815 95.5641C55.4676 95.5736 55.12 95.5748 54.7725 95.5679C51.6465 95.5641 49.6477 95.4224 47.8725 96.3779C47.916 96.2691 48.6975 94.5329 51.4987 93.8279C51.1882 93.1424 50.994 92.1929 50.9422 90.8751C50.7495 85.8201 53.8672 81.6726 57.09 81.6456C60.3127 81.6186 62.5575 85.7031 62.6055 90.7626H62.613ZM57.6375 88.1151C58.545 88.0926 59.2612 87.3329 59.2372 86.4276C59.2125 85.5171 58.4572 84.8001 57.5497 84.8249C56.6385 84.8474 55.9207 85.6049 55.9447 86.5124C55.9687 87.4236 56.7262 88.1399 57.6367 88.1159L57.6375 88.1151Z" fill="#2D3136"/>
<path d="M57.6368 88.1186C58.5457 88.0952 59.2636 87.3394 59.2403 86.4305C59.2169 85.5216 58.4611 84.8037 57.5522 84.8271C56.6433 84.8504 55.9254 85.6062 55.9487 86.5151C55.9721 87.4241 56.7279 88.142 57.6368 88.1186Z" fill="#EDF6FA"/>
<path opacity="0.8" d="M38.025 56.4142C38.025 56.4142 38.5253 49.8952 39.5475 47.397C40.074 46.1092 43.2945 45.297 45.7545 44.697C48.2145 44.097 52.1355 42.9405 52.8975 46.395C53.6595 49.8495 54.8873 52.3672 55.707 53.4795L54.654 39.252L37.725 43.3567L36.6128 55.9455L37.14 56.9407L38.0175 56.4135L38.025 56.4142ZM123.641 56.4142C123.641 56.4142 123.142 49.8952 122.119 47.397C121.592 46.1092 118.371 45.297 115.913 44.697C113.454 44.097 109.538 42.9405 108.768 46.395C107.999 49.8495 106.778 52.3672 105.957 53.4795L107.012 39.252L123.934 43.35L125.046 55.9395L124.519 56.9347L123.641 56.4075" fill="#EBD599"/>
<path opacity="0.75" d="M99.7238 13.8314C99.7238 13.8314 99.2753 47.9564 91.3058 47.9564H70.5855C62.616 47.9564 61.9725 13.8539 61.9725 13.8539L58.05 25.4249L58.1138 41.3122L60.894 43.5224L62.1578 50.3444L63.9255 54.3247L98.037 54.3877L99.6158 51.5377L100.943 46.7377L101.134 43.7054L104.901 32.9504L99.717 13.8254L99.7238 13.8314ZM124.823 45.6434C124.823 45.6434 126.463 57.4124 130.803 59.5349C135.143 61.6574 130.803 59.5349 130.803 59.5349L124.726 57.7019L124.823 45.6434H124.823ZM36.681 45.6434C36.681 45.6434 35.0408 57.4124 30.6998 59.5349C26.3588 61.6574 30.6998 59.5349 30.6998 59.5349L36.7778 57.7019L36.6803 45.6434H36.681Z" fill="#EBD599"/>
<path d="M125.99 57.6479C128.057 58.3244 130.135 59.0414 132.017 60.1416C131.01 59.7426 129.97 59.4569 128.923 59.1989L125.773 58.5059L119.399 57.5106L112.99 56.8176L106.56 56.3301C97.9755 55.8021 89.367 55.6701 80.76 55.6611C72.1478 55.6656 63.5385 55.8261 54.96 56.3339C52.8135 56.4584 50.6738 56.6339 48.531 56.8214C46.3894 57.0016 44.2523 57.2324 42.1215 57.5136C39.9863 57.7724 37.863 58.1106 35.748 58.5089C34.6899 58.7073 33.638 58.9371 32.5935 59.1981C31.5435 59.4561 30.5063 59.7419 29.499 60.1409C31.374 59.0414 33.459 58.3206 35.529 57.6434C35.703 57.5871 35.8793 57.5384 36.0563 57.4829C36.045 57.4379 36.0323 57.3981 36.024 57.3501C35.988 57.1124 35.2215 51.4551 36.549 43.3664C36.6135 42.9794 36.891 42.6651 37.2705 42.5601L39.4583 41.9376C39.9338 24.9689 46.9223 16.9881 47.1405 16.7421C40.896 26.7899 40.953 38.7066 41.061 41.4816L54.657 37.6176C54.669 37.6139 54.6765 37.6139 54.6885 37.6101C54.7455 37.5981 54.801 37.5899 54.858 37.5861C54.873 37.5861 54.8955 37.5816 54.9143 37.5816C54.9891 37.579 55.0639 37.5858 55.137 37.6019C55.1483 37.6019 55.1595 37.6094 55.1768 37.6139C55.233 37.6259 55.2855 37.6454 55.3448 37.6701C55.3695 37.6821 55.3853 37.6949 55.4093 37.7076C55.4551 37.733 55.4994 37.7611 55.542 37.7916C55.554 37.7991 55.5675 37.8036 55.5795 37.8164C55.587 37.8239 55.5945 37.8329 55.6035 37.8404C55.6155 37.8524 55.6313 37.8606 55.644 37.8734C55.9548 38.1807 56.2704 38.4833 56.5905 38.7809C56.454 34.3011 56.667 21.4499 62.787 10.8059C62.658 11.1794 57.8025 25.3769 59.4758 41.2896C60.0159 41.7245 60.5736 42.1371 61.1475 42.5264C61.2805 42.6178 61.3897 42.7397 61.466 42.8819C61.5424 43.0241 61.5836 43.1825 61.5863 43.3439C61.5908 43.3964 61.7063 48.4686 63.9473 52.7834C63.9788 52.8479 64.0028 52.9161 64.0238 52.9844C69.5963 52.6056 75.1823 52.4594 80.7578 52.4489C86.3348 52.4526 91.9178 52.6139 97.488 52.9964C97.5073 52.9222 97.535 52.8505 97.5705 52.7826C99.81 48.4679 99.927 43.3956 99.927 43.3431C99.9345 43.0161 100.1 42.7109 100.377 42.5181C100.948 42.1267 101.505 41.7139 102.045 41.2806C103.721 25.3679 98.865 11.1704 98.745 10.7969C104.86 21.4469 105.078 34.2989 104.942 38.7719L105.887 37.8719C105.899 37.8599 105.917 37.8516 105.926 37.8389C105.935 37.8314 105.94 37.8239 105.951 37.8149C105.962 37.8059 105.976 37.7984 105.989 37.7901C106.034 37.7586 106.079 37.7301 106.121 37.7016C106.142 37.6941 106.162 37.6814 106.181 37.6694C106.239 37.6449 106.298 37.6249 106.358 37.6094C106.37 37.6094 106.383 37.6019 106.396 37.6019C106.469 37.5855 106.543 37.5787 106.618 37.5816C106.638 37.5816 106.655 37.5861 106.67 37.5861C106.728 37.59 106.786 37.598 106.843 37.6101C106.852 37.6146 106.864 37.6146 106.874 37.6176L120.472 41.4816C120.581 38.7066 120.637 26.7816 114.394 16.7421C114.619 16.9881 121.594 24.9696 122.072 41.9376L124.263 42.5601C124.447 42.6125 124.613 42.7161 124.74 42.8588C124.868 43.0015 124.953 43.1775 124.985 43.3664C126.317 51.4559 125.549 57.1124 125.516 57.3501C125.508 57.3962 125.497 57.4418 125.484 57.4866L126.014 57.6479H125.99ZM123.518 56.9219C123.623 56.0166 124.118 51.0719 123.068 44.3219L107.685 39.9479C107.823 42.5541 107.884 48.2069 106.405 53.5979C106.385 53.6644 106.36 53.7292 106.329 53.7914C106.481 53.8064 106.635 53.8191 106.784 53.8394C111.111 54.3344 115.409 55.0274 119.684 55.9619C120.968 56.2604 122.253 56.5791 123.527 56.9241L123.518 56.9219ZM104.468 53.0594C105.734 48.4469 105.803 43.5194 105.709 40.8006C104.694 41.7231 103.311 42.9006 101.921 43.8944C101.836 45.3164 101.441 49.3529 99.6323 53.1434L104.467 53.5934C104.419 53.4208 104.419 53.2387 104.467 53.0661L104.468 53.0594ZM61.8825 53.1329C60.0765 49.3454 59.682 45.3164 59.598 43.8951C58.2045 42.9081 56.826 41.7239 55.8105 40.8014C55.7205 43.5239 55.7865 48.4559 57.051 53.0601C57.0998 53.2379 57.0945 53.4149 57.051 53.5806L61.881 53.1329H61.8825ZM55.1828 53.7809C55.1533 53.7212 55.1287 53.6593 55.1093 53.5956C53.628 48.2054 53.6843 42.5534 53.8253 39.9456L38.433 44.3204C37.398 51.0569 37.881 56.0076 37.9853 56.9181C39.2625 56.5716 40.5353 56.2529 41.8328 55.9551C43.959 55.4841 46.1025 55.0896 48.2498 54.7266C50.4023 54.3681 52.56 54.0944 54.7193 53.8326C54.873 53.8124 55.0223 53.8011 55.1753 53.7801L55.1828 53.7809ZM96.9773 14.2784V27.0471H87.9263V23.3166H85.8863V40.5516H88.9613V50.1891H73.1363V40.5516H76.2053V23.3166H74.1803V27.0479H65.1353V14.2776H96.9855L96.9773 14.2784ZM94.2578 24.3344V16.9844H67.8323V24.3344H71.4443V20.6039H78.9173V43.2726H75.8423V47.4771H86.241V43.2726H83.166V20.6031H90.639V24.3336H94.2503L94.2578 24.3344Z" fill="#2D3136"/>
<path d="M67.8323 24.3329V16.9829H94.2503V24.3329H90.6383V20.6024H83.1653V43.2712H86.2403V47.4757H75.8423V43.2712H78.9173V20.6032H71.445V24.3337L67.8323 24.3329Z" fill="#CB3349"/>
<path d="M23.0205 69.8879L28.308 68.7854L23.6415 72.2332L23.019 69.8879H23.0205Z" fill="#656C67"/>
<path d="M71.325 104.883C71.325 104.883 71.694 107.257 68.3715 108.273C65.049 109.289 44.01 115.56 41.61 115.22C39.21 114.881 33.12 110.815 33.12 110.815L31.6425 105.562L40.6545 111.181L71.3235 104.884L71.325 104.883ZM90.174 104.423C90.174 104.423 89.9085 106.81 93.2715 107.682C96.6345 108.554 117.928 113.903 120.309 113.46C122.69 113.017 128.599 108.69 128.599 108.69L129.846 103.377L121.562 108.318L90.1732 104.424L90.174 104.423Z" fill="#C7B39A"/>
<path d="M21.309 100.515C21.309 100.515 24.2243 106.346 28.9335 104.327L32.2973 105.561L31.9613 108.036L24.8963 108.932L22.9913 107.812L21.309 100.522V100.515ZM140.663 98.9146C140.663 98.9146 135.898 105.001 131.189 102.983L129.674 103.959L130.01 106.434L137.075 107.331L138.98 106.21L140.663 98.9228V98.9146ZM66.96 144.726C66.96 144.726 84.2325 153.426 103.79 141.585L97.509 141.158C97.509 141.158 83.805 146.582 72.9555 143.584L66.96 144.727V144.726Z" fill="#C7B39A"/>
<path d="M84.4695 128.68L85.665 130.105C85.692 130.14 88.3477 133.3 91.5945 136.519C93.7545 138.659 96.3622 139.742 99.3517 139.742C100.372 139.742 101.444 139.611 102.528 139.35L105.743 138.577L116.572 135.895C117.01 135.77 117.5 135.658 118.016 135.541C120.967 134.858 125.013 133.918 127.156 129.623L132.553 119.153C131.156 119.798 129.691 120.503 128.651 121.043C127.048 121.885 124.948 122.293 122.233 122.293C120.619 122.293 119.033 122.158 117.279 122.001C113.773 121.678 107.84 120.981 107.779 120.972L107.324 120.922L106.966 120.634C106.913 120.595 101.714 116.453 97.5112 113.149L97.0462 112.765C96.5963 112.387 96.5963 112.387 96.3398 112.387C94.992 112.387 91.0747 113.602 82.4932 116.263L81.966 116.43L81.4485 116.235C81.39 116.215 75.7598 114.135 69.0135 114.135C68.467 114.135 67.9205 114.149 67.3747 114.177C66.6998 114.211 62.9062 116.013 58.056 123.687L57.741 124.18L57.186 124.358C57.1058 124.386 48.7575 127.081 39.9045 129.612L39.33 129.775L38.7863 129.523C38.7285 129.5 35.2643 127.892 31.9688 126.377C33.7665 129.032 36.0653 132.346 38.0887 134.944C41.6213 139.494 46.0763 143.699 54.6143 143.699C55.7428 143.696 56.8704 143.63 57.9915 143.5C66.6765 142.518 68.9137 142.123 70.1175 141.913C70.5247 141.844 70.8473 141.785 71.259 141.734C71.325 141.727 78.4365 140.806 80.433 136.33L82.923 130.592L83.649 128.655C83.649 128.655 83.739 128.152 83.8867 127.997L83.9048 128.012C84.1335 128.177 84.4725 128.689 84.4725 128.689L84.4695 128.68ZM30.375 41.823C28.488 42.5835 26.613 43.368 24.78 44.2305C22.9425 45.0705 21.138 45.9705 19.4137 46.9755C17.8237 47.892 16.296 48.8977 14.9482 50.0325C14.8905 50.3737 14.8358 50.7465 14.7908 51.0997L14.6348 52.6072C14.5448 53.6167 14.5103 54.6345 14.4998 55.6522C14.4803 57.687 14.6197 59.7217 14.8762 61.7362C15.1552 63.7552 15.5243 65.7637 16.0718 67.7002C16.344 68.6715 16.647 69.63 17.004 70.5532C17.1788 71.0205 17.373 71.4742 17.5755 71.9167C17.675 72.1345 17.7783 72.3505 17.8853 72.5647L18.0142 72.8092C18.1642 72.8868 18.3155 72.9618 18.468 73.0342L19.3725 73.4647L21.147 74.2845C21.1815 74.2567 21.213 74.226 21.24 74.199L19.5675 67.8165C19.92 67.719 23.1053 66.8962 28.5915 65.8515C28.1415 65.769 27.699 65.673 27.2603 65.5665C26.0138 65.2567 24.7778 64.8765 23.5868 64.3942C22.9965 64.1422 22.4093 63.8692 21.8542 63.5542C21.2992 63.2392 20.7518 62.8755 20.328 62.394C26.3528 64.368 38.805 63.4755 49.875 62.3355C60 61.2907 70.146 60.6157 80.346 60.5917C90.546 60.6142 100.699 61.2892 110.818 62.3355C121.896 63.477 134.349 64.3702 140.373 62.4015C139.95 62.883 139.403 63.243 138.848 63.5617C138.292 63.8805 137.706 64.1482 137.115 64.4017C135.919 64.8832 134.688 65.2642 133.438 65.574L132.883 65.6985C138.898 66.813 142.4 67.7212 142.772 67.8225L141.169 73.9027L142.135 73.4722L143.04 73.0417L143.495 72.8167L143.619 72.5722C143.729 72.3586 143.833 72.1426 143.933 71.9242C144.136 71.4817 144.329 71.0272 144.508 70.5607C144.863 69.6251 145.172 68.673 145.436 67.7077C145.983 65.7705 146.357 63.7627 146.632 61.7437C146.891 59.7292 147.028 57.6937 147.008 55.6597C147.001 54.6427 146.962 53.625 146.876 52.6147C146.834 52.11 146.779 51.6097 146.716 51.1072C146.672 50.7502 146.619 50.3944 146.557 50.04C145.209 48.9052 143.684 47.9002 142.091 46.983C140.366 45.978 138.563 45.078 136.721 44.238C134.893 43.3755 133.014 42.5917 131.126 41.8305L128.276 40.7235L125.4 39.6562C127.422 39.99 129.428 40.4512 131.41 40.9612C132.704 41.2986 133.99 41.669 135.266 42.072C126.191 18.3285 104.463 2.86797 80.7517 2.86797C57.0352 2.86797 35.3198 18.3285 26.2388 42.072C27.5153 41.6722 28.8007 41.2957 30.09 40.962C32.0775 40.4535 34.0815 39.9915 36.105 39.657L33.2235 40.7242C32.2688 41.0801 31.319 41.4488 30.3743 41.8305L30.375 41.823ZM149.947 55.56C150.057 57.7455 149.999 59.9347 149.754 62.1097C149.525 64.2802 149.113 66.4312 148.539 68.5635C148.24 69.6296 147.888 70.6804 147.486 71.712C147.28 72.2317 147.059 72.7492 146.811 73.2645C146.689 73.5249 146.558 73.7813 146.419 74.0332L146.206 74.4172C146.128 74.5567 146.066 74.6617 145.945 74.8477L145.724 75.1905L145.379 75.3682C145.047 75.5388 144.712 75.7021 144.373 75.858L143.399 76.2967C142.749 76.5735 142.093 76.8397 141.434 77.0955L140.188 77.601L139.105 81.7162L138.143 81.48L138.084 81.9105C139.279 82.5352 141.628 83.802 142.429 84.4627C144.04 85.794 144.154 87.903 143.796 91.8427C143.613 93.8655 142.941 97.8022 142.011 101.418C140.403 107.641 139.549 108.373 138.446 108.655C137.708 108.84 136.951 108.936 136.19 108.943C134.491 108.943 132.175 108.99 130.618 108.613C130.218 110.029 129.077 113.722 126.817 118.334C126.929 118.279 127.042 118.233 127.143 118.179C129.931 116.715 135.288 114.381 135.514 114.279L139.747 112.44L137.572 116.516C137.521 116.605 132.874 125.346 130.027 131.053C127.199 136.707 121.9 137.938 118.728 138.666L117.428 138.985C115.152 139.625 110.543 140.725 106.478 141.702C106.43 141.714 106.381 141.727 106.331 141.733C103.829 143.278 101.1 144.658 98.1143 145.791C87.1882 149.929 75.672 149.697 65.2312 145.86L58.3365 146.683C57.0952 146.824 55.8471 146.897 54.5977 146.901C44.6497 146.901 39.3773 141.849 35.529 136.903C31.4093 131.607 26.37 123.744 26.1562 123.415L23.25 118.867L28.1887 121.087L39.5925 126.337L40.074 126.198C36.7313 121.43 33.99 115.994 32.0527 109.972C30.4065 110.469 27.8707 110.854 25.8982 110.854C25.1782 110.854 24.5317 110.8 24.0353 110.683C22.9328 110.431 21.6742 109.367 19.9627 103.336C18.969 99.8355 18.2272 96.0135 18.0105 94.0462C17.583 90.2062 17.661 88.1482 19.257 86.8192C20.2192 86.0167 23.4645 84.3112 24.1372 83.9617L23.9932 82.7767C13.6807 88.8367 7.50075 94.1917 7.3755 94.3012L0 100.774L5.25375 92.4892C9.41175 85.923 14.2147 80.6152 18.6337 76.5262L18.1087 76.3057L17.1337 75.867C16.8 75.711 16.4963 75.567 16.1287 75.3772L15.7838 75.1995L15.5625 74.8567C15.438 74.6692 15.384 74.5657 15.3022 74.4262L15.0773 74.0422L14.6887 73.2735C14.4474 72.764 14.2248 72.2459 14.0212 71.7202C13.6185 70.6887 13.2671 69.638 12.9683 68.5717C12.3907 66.4395 11.982 64.2967 11.7533 62.118C11.5132 59.943 11.4503 57.753 11.5583 55.5682C11.6169 54.4758 11.7217 53.3863 11.8725 52.3027C11.9505 51.759 12.0322 51.2152 12.141 50.6752C12.2506 50.1155 12.3801 49.5599 12.5295 49.0095L12.6458 48.5865L12.9487 48.3487C14.6692 46.9972 16.5247 45.9765 18.4118 45.0712C19.9604 44.3492 21.5397 43.6946 23.145 43.1092C27.6023 30.7395 35.2665 19.7707 45.3375 12.1267C55.7528 4.22547 67.998 0.0479736 80.7525 0.0479736C93.507 0.0479736 105.753 4.22547 116.166 12.1275C126.239 19.7722 133.904 30.7425 138.357 43.1077C139.957 43.698 141.537 44.3377 143.094 45.0727C144.98 45.9772 146.844 46.998 148.556 48.3502L148.859 48.588L148.976 49.011C149.129 49.5605 149.258 50.1163 149.364 50.6767C149.471 51.2161 149.561 51.7589 149.632 52.3042C149.786 53.3869 149.891 54.476 149.946 55.5682L149.947 55.56ZM140.951 91.5825C141.293 87.7935 140.995 86.9775 140.61 86.667C140.225 86.3445 138.925 85.608 137.659 84.9195L135.574 99.5175C135.553 99.6587 135.504 99.7943 135.43 99.9159C135.355 100.037 135.256 100.142 135.139 100.224L132.156 102.309C131.92 103.504 131.834 104.068 131.543 105.236C133.248 105.632 136.043 105.94 137.374 105.682C138.583 104.371 140.535 96.2325 140.951 91.581L140.951 91.5825ZM137.081 78.3465L139.314 69.8715C136.076 69.138 130.111 67.9102 121.989 66.7605C117.841 69.7425 113.302 72.1267 108.841 74.028C122.491 75.3555 132.519 77.3325 137.081 78.3382V78.3465ZM133.571 98.7742L136.11 81.0172L131.812 80.1397L129.518 96.2062C129.475 96.4897 129.319 96.75 129.086 96.9135L120.482 102.931C120.275 103.075 120.023 103.14 119.772 103.113L93.843 100.165C93.6408 100.143 93.4496 100.062 93.2929 99.9325C93.1362 99.8028 93.0208 99.6301 92.961 99.4357L88.2907 84.0607C87.0397 83.7382 83.8283 82.9882 81.0188 82.9882C78.1958 82.9882 74.9888 83.7382 73.7377 84.0607L69.0667 99.4357C69.0264 99.5671 68.9604 99.6893 68.8726 99.7951C68.7848 99.9009 68.6769 99.9883 68.5553 100.052C68.4772 100.095 68.388 100.126 68.298 100.146L42.375 105.925C42.2925 105.942 42.2235 105.95 42.1455 105.95C41.9328 105.951 41.7251 105.886 41.5515 105.763L32.9513 99.7402C32.7113 99.573 32.5508 99.309 32.5125 99.0142L30.195 80.2102L27.585 80.7375L25.9545 81.6472L28.4145 101.573L40.914 110.329L72.4492 103.314L77.1045 87.9765C77.1604 87.7889 77.268 87.6208 77.4149 87.4914C77.5619 87.3621 77.7423 87.2768 77.9355 87.2452C79.116 87.0555 80.148 86.9587 81.0225 86.9587C81.8873 86.9587 82.9245 87.0562 84.1012 87.2452C84.4973 87.3075 84.819 87.5902 84.9323 87.9765L89.7067 103.693L121.418 107.299L133.576 98.7817L133.571 98.7742ZM127.519 95.4667L129.763 79.7557C123.433 78.6037 114.178 77.2102 102.84 76.3402C92.6047 79.8705 84.0322 80.9212 83.5155 80.9565L82.9177 80.9992C86.1825 81.2797 89.2583 82.1572 89.4128 82.203C89.7518 82.3042 90.0158 82.563 90.1208 82.9027L94.7603 98.1772L119.614 101L127.519 95.4667ZM129.246 104.35L128.193 105.088L122.288 109.228C122.077 109.372 121.822 109.438 121.572 109.41L88.788 105.682C88.5861 105.659 88.3954 105.577 88.2394 105.447C88.0834 105.317 87.9688 105.144 87.9097 104.95L83.127 89.2012C82.3275 89.0925 81.6165 89.0362 81.027 89.0362C80.4195 89.0362 79.7145 89.091 78.9143 89.2012L74.2702 104.495C74.1615 104.852 73.8668 105.125 73.5015 105.205L40.9163 112.473C40.8409 112.488 40.7643 112.495 40.6875 112.495C40.4775 112.495 40.2675 112.433 40.089 112.306L38.9055 111.482L35.361 109.002V108.994L33.936 107.993C34.0373 108.316 34.1535 108.631 34.266 108.944L34.2615 108.949C34.5375 109.768 37.2825 117.665 42.8617 125.396L55.6545 121.471C59.0205 116.283 63.8123 111.138 67.218 110.96C67.8181 110.931 68.4187 110.916 69.0195 110.914C70.6014 110.92 72.1817 111.018 73.752 111.209C72.4995 110.071 72.2422 108.736 72.06 108.145C72.06 108.145 76.4047 111.543 81.9375 110.833C87.471 110.119 90.9075 106.93 90.9075 106.93C90.9075 106.93 90.8925 109.257 88.4805 111.058C93.117 109.655 95.0355 109.175 96.348 109.175C97.7955 109.175 98.5102 109.781 99.1357 110.315C99.2558 110.413 99.3773 110.516 99.516 110.63L108.621 117.841L117.578 118.803C119.251 118.953 120.762 119.082 122.241 119.082C122.719 119.082 123.166 119.062 123.589 119.035C125.507 115.375 127.231 111.227 128.695 106.545C128.894 105.823 129.079 105.098 129.252 104.369L129.246 104.35ZM117.971 65.6557C117.963 65.6512 117.956 65.6467 117.948 65.6467L110.579 65.1592L100.328 64.6582C99.9452 65.2218 99.5516 65.7781 99.1478 66.327C97.2878 68.8432 93.5993 73.452 88.8698 77.3745C95.5642 76.1745 107.177 73.2045 117.222 66.1957L117.972 65.6572L117.971 65.6557ZM95.5635 66.3502L96.3465 65.3452C93.9148 65.5917 91.495 65.944 89.094 66.4012C80.9835 67.9192 73.494 70.4437 67.269 73.029C71.9006 72.8031 76.5369 72.6893 81.174 72.6877C84.105 72.6877 86.955 72.738 89.727 72.8197C92.112 70.5277 94.122 68.1832 95.571 66.3502H95.5635ZM98.2538 142.914C94.8765 142.665 91.8052 141.26 89.3265 138.806L88.95 138.422C87.7405 138.666 86.5184 138.842 85.2893 138.95C84.7658 138.97 84.2692 139.015 83.7217 139.015L82.9095 139.023L82.5998 139.015C79.3027 143.92 71.9798 144.875 71.646 144.918C71.3438 144.952 71.0955 144.995 70.7535 145.057C74.835 146.175 79.0005 146.661 83.109 146.385C87.228 146.11 92.5793 145.216 98.2552 142.914H98.2538ZM85.2038 137.319C85.9958 137.257 86.7915 137.155 87.5918 137.035C86.6816 136.088 85.7894 135.124 84.9157 134.143L83.4758 137.398H83.658C84.1515 137.398 84.6915 137.345 85.203 137.32L85.2038 137.319ZM82.6882 78.345C84.0585 77.5177 85.3747 76.5705 86.6257 75.561L81.1673 75.507C74.1125 75.5079 67.0603 75.7733 60.0255 76.3027C53.5755 79.4602 49.6193 82.0567 49.527 82.1227L43.326 86.2582L47.586 80.1457C48.2887 79.131 49.0335 78.1687 49.803 77.253C42.651 78.0525 36.6953 79.0005 32.253 79.8195L34.5315 98.2935L42.3713 103.783L67.2592 98.25L71.9183 82.902C71.9962 82.6492 72.1657 82.437 72.3885 82.3072C72.4614 82.2603 72.5411 82.2249 72.6247 82.2022C72.7688 82.1632 75.2497 81.4522 78.1267 81.1035L82.6973 78.3435L82.6882 78.345ZM85.5502 64.254L80.3467 64.2075L72.7043 64.29L68.0017 66.5175C67.998 66.5212 67.9717 66.5325 67.9358 66.5535C67.2292 66.8985 61.0553 70.0132 55.2458 75.5685C60.453 72.831 68.1053 69.255 77.1105 66.4822C79.8083 65.6557 82.635 64.8937 85.548 64.2532L85.5502 64.254ZM52.6875 74.118C55.125 71.6992 57.6413 69.7035 59.8628 68.1427C51.3015 70.1302 43.4205 73.05 36.5168 76.2262C41.0093 75.5002 46.4482 74.7435 52.6868 74.1187L52.6875 74.118ZM54.3075 66.6555C57.1763 65.8515 60.135 65.148 63.1673 64.5585L50.1225 65.1645L42.5737 65.6647L38.8185 65.9985C38.4615 66.033 38.112 66.072 37.755 66.1185C34.4775 68.079 21.9097 75.969 13.2825 86.286C21.6675 80.4585 36.273 71.7037 54.3075 66.6562V66.6555ZM31.17 107.305C31.0064 106.782 30.8511 106.257 30.7043 105.729L26.8328 103.02C26.7126 102.936 26.6114 102.829 26.5356 102.703C26.4599 102.578 26.4114 102.438 26.3933 102.293L24.5062 86.9557C23.1082 87.7057 21.4935 88.6245 21.0623 88.986C20.6895 89.2935 20.406 90.081 20.8102 93.735C21.3113 98.235 23.5943 106.735 24.8213 107.97C26.2973 108.23 29.5665 107.776 31.17 107.305ZM28.3088 68.7855L23.0212 69.888L23.6437 72.2332C25.1559 71.0265 26.7125 69.8764 28.3103 68.7855H28.3088Z" fill="#2D3136"/>
</g>
<defs>
<clipPath id="clip0_116_62">
<rect width="150" height="150" fill="white"/>
</clipPath>
</defs>
</svg>
