<svg id="visual" viewBox="0 0 960 100" width="960" height="100" xmlns="http://www.w3.org/2000/svg" xmlns:xlink="http://www.w3.org/1999/xlink" version="1.1"><rect x="0" y="0" width="960" height="100" fill="#ffffff"></rect><path d="M0 37L22.8 35.7C45.7 34.3 91.3 31.7 137 34.2C182.7 36.7 228.3 44.3 274 44.2C319.7 44 365.3 36 411.2 32.3C457 28.7 503 29.3 548.8 30.2C594.7 31 640.3 32 686 34.7C731.7 37.3 777.3 41.7 823 43.3C868.7 45 914.3 44 937.2 43.5L960 43L960 101L937.2 101C914.3 101 868.7 101 823 101C777.3 101 731.7 101 686 101C640.3 101 594.7 101 548.8 101C503 101 457 101 411.2 101C365.3 101 319.7 101 274 101C228.3 101 182.7 101 137 101C91.3 101 45.7 101 22.8 101L0 101Z" fill="#a6a6a6"></path><path d="M0 53L22.8 54.7C45.7 56.3 91.3 59.7 137 58C182.7 56.3 228.3 49.7 274 46.7C319.7 43.7 365.3 44.3 411.2 44.7C457 45 503 45 548.8 45.3C594.7 45.7 640.3 46.3 686 46.5C731.7 46.7 777.3 46.3 823 44.8C868.7 43.3 914.3 40.7 937.2 39.3L960 38L960 101L937.2 101C914.3 101 868.7 101 823 101C777.3 101 731.7 101 686 101C640.3 101 594.7 101 548.8 101C503 101 457 101 411.2 101C365.3 101 319.7 101 274 101C228.3 101 182.7 101 137 101C91.3 101 45.7 101 22.8 101L0 101Z" fill="#b5b6b7"></path><path d="M0 53L22.8 53.8C45.7 54.7 91.3 56.3 137 57C182.7 57.7 228.3 57.3 274 58.2C319.7 59 365.3 61 411.2 62.3C457 63.7 503 64.3 548.8 63.7C594.7 63 640.3 61 686 60.5C731.7 60 777.3 61 823 59.7C868.7 58.3 914.3 54.7 937.2 52.8L960 51L960 101L937.2 101C914.3 101 868.7 101 823 101C777.3 101 731.7 101 686 101C640.3 101 594.7 101 548.8 101C503 101 457 101 411.2 101C365.3 101 319.7 101 274 101C228.3 101 182.7 101 137 101C91.3 101 45.7 101 22.8 101L0 101Z" fill="#c5c6c8"></path><path d="M0 67L22.8 67.2C45.7 67.3 91.3 67.7 137 68.2C182.7 68.7 228.3 69.3 274 70.7C319.7 72 365.3 74 411.2 76C457 78 503 80 548.8 78.3C594.7 76.7 640.3 71.3 686 68.3C731.7 65.3 777.3 64.7 823 66C868.7 67.3 914.3 70.7 937.2 72.3L960 74L960 101L937.2 101C914.3 101 868.7 101 823 101C777.3 101 731.7 101 686 101C640.3 101 594.7 101 548.8 101C503 101 457 101 411.2 101C365.3 101 319.7 101 274 101C228.3 101 182.7 101 137 101C91.3 101 45.7 101 22.8 101L0 101Z" fill="#d5d6d9"></path><path d="M0 84L22.8 83.2C45.7 82.3 91.3 80.7 137 79.7C182.7 78.7 228.3 78.3 274 79.7C319.7 81 365.3 84 411.2 84.7C457 85.3 503 83.7 548.8 82.5C594.7 81.3 640.3 80.7 686 81.3C731.7 82 777.3 84 823 84.5C868.7 85 914.3 84 937.2 83.5L960 83L960 101L937.2 101C914.3 101 868.7 101 823 101C777.3 101 731.7 101 686 101C640.3 101 594.7 101 548.8 101C503 101 457 101 411.2 101C365.3 101 319.7 101 274 101C228.3 101 182.7 101 137 101C91.3 101 45.7 101 22.8 101L0 101Z" fill="#e5e7eb"></path></svg>