<svg id="visual" viewBox="0 0 960 300" width="960" height="300" xmlns="http://www.w3.org/2000/svg" xmlns:xlink="http://www.w3.org/1999/xlink" version="1.1"><rect x="0" y="0" width="960" height="300" fill="#e5e7eb"></rect><path d="M0 58L22.8 58.8C45.7 59.7 91.3 61.3 137 58.7C182.7 56 228.3 49 274 47C319.7 45 365.3 48 411.2 52.2C457 56.3 503 61.7 548.8 71.7C594.7 81.7 640.3 96.3 686 94.8C731.7 93.3 777.3 75.7 823 63.5C868.7 51.3 914.3 44.7 937.2 41.3L960 38L960 0L937.2 0C914.3 0 868.7 0 823 0C777.3 0 731.7 0 686 0C640.3 0 594.7 0 548.8 0C503 0 457 0 411.2 0C365.3 0 319.7 0 274 0C228.3 0 182.7 0 137 0C91.3 0 45.7 0 22.8 0L0 0Z" fill="#ffffff" stroke-linecap="round" stroke-linejoin="miter"></path></svg>