<svg id="visual" viewBox="0 0 960 100" width="960" height="100" xmlns="http://www.w3.org/2000/svg" xmlns:xlink="http://www.w3.org/1999/xlink" version="1.1"><rect x="0" y="0" width="960" height="100" fill="#e5e7eb"></rect><path d="M0 24L11.5 22.5C23 21 46 18 68.8 19.3C91.7 20.7 114.3 26.3 137.2 27.5C160 28.7 183 25.3 205.8 25.2C228.7 25 251.3 28 274.2 28.3C297 28.7 320 26.3 342.8 25.7C365.7 25 388.3 26 411.2 27.7C434 29.3 457 31.7 480 33.2C503 34.7 526 35.3 548.8 32.5C571.7 29.7 594.3 23.3 617.2 19.7C640 16 663 15 685.8 16.5C708.7 18 731.3 22 754.2 25.8C777 29.7 800 33.3 822.8 32.2C845.7 31 868.3 25 891.2 25C914 25 937 31 948.5 34L960 37L960 0L948.5 0C937 0 914 0 891.2 0C868.3 0 845.7 0 822.8 0C800 0 777 0 754.2 0C731.3 0 708.7 0 685.8 0C663 0 640 0 617.2 0C594.3 0 571.7 0 548.8 0C526 0 503 0 480 0C457 0 434 0 411.2 0C388.3 0 365.7 0 342.8 0C320 0 297 0 274.2 0C251.3 0 228.7 0 205.8 0C183 0 160 0 137.2 0C114.3 0 91.7 0 68.8 0C46 0 23 0 11.5 0L0 0Z" fill="#ffffff" stroke-linecap="round" stroke-linejoin="miter"></path></svg>