<svg id="visual" viewBox="0 0 900 600" width="900" height="600" xmlns="http://www.w3.org/2000/svg" xmlns:xlink="http://www.w3.org/1999/xlink" version="1.1"><rect x="0" y="0" width="900" height="600" fill="#FFFFFF"></rect><path d="M0 482L21.5 480C43 478 86 474 128.8 479.3C171.7 484.7 214.3 499.3 257.2 503.7C300 508 343 502 385.8 493.7C428.7 485.3 471.3 474.7 514.2 454.7C557 434.7 600 405.3 642.8 408.2C685.7 411 728.3 446 771.2 470C814 494 857 507 878.5 513.5L900 520L900 601L878.5 601C857 601 814 601 771.2 601C728.3 601 685.7 601 642.8 601C600 601 557 601 514.2 601C471.3 601 428.7 601 385.8 601C343 601 300 601 257.2 601C214.3 601 171.7 601 128.8 601C86 601 43 601 21.5 601L0 601Z" fill="#e5e7eb" stroke-linecap="round" stroke-linejoin="miter"></path></svg>