<svg width="246" height="120" viewBox="0 0 246 120" fill="none" xmlns="http://www.w3.org/2000/svg">
<path d="M70.9893 31.3268H108.129V34.2855H74.3946V56.5508H106.117V59.5095H74.3946V83.9548H108.516V86.9135H70.9893V31.3268ZM111.456 31.3268H115.403L132.889 55.7721L150.763 31.3268L175.073 0.276123L135.133 58.3415L155.715 86.9135H151.613L132.889 60.9108L114.088 86.9135H110.064L130.8 58.3415L111.457 31.3268H111.456ZM157.185 34.2855V31.3268H199.508V34.2855H180.011V86.9121H176.605V34.2855H157.187H157.185ZM24.5266 31.3268H28.7826L87.464 119.331L63.2133 86.9135L28.0853 35.5308L27.9306 86.9135H24.5266V31.3268ZM199.167 83.0615C198.469 83.0615 197.948 82.5215 197.948 81.8241C197.948 81.1255 198.469 80.5855 199.165 80.5855C199.869 80.5855 200.383 81.1255 200.383 81.8241C200.383 82.5215 199.869 83.0615 199.165 83.0615H199.167ZM202.511 79.8041H204.333C204.359 80.7935 205.08 81.4575 206.139 81.4575C207.323 81.4575 207.993 80.7441 207.993 79.4055V70.9308H209.848V79.4135C209.848 81.8241 208.457 83.2121 206.155 83.2121C203.995 83.2121 202.512 81.8655 202.512 79.8041H202.511ZM212.273 79.6975H214.112C214.269 80.8348 215.379 81.5575 216.977 81.5575C218.467 81.5575 219.56 80.7841 219.56 79.7215C219.56 78.8081 218.865 78.2588 217.283 77.8855L215.743 77.5121C213.583 77.0055 212.596 75.9575 212.596 74.1961C212.596 72.0601 214.335 70.6388 216.943 70.6388C219.369 70.6388 221.143 72.0601 221.249 74.0788H219.444C219.271 72.9748 218.311 72.2841 216.919 72.2841C215.452 72.2841 214.476 72.9908 214.476 74.0708C214.476 74.9268 215.105 75.4175 216.663 75.7828L217.979 76.1068C220.429 76.6801 221.44 77.6775 221.44 79.4801C221.44 81.7735 219.667 83.2121 216.836 83.2121C214.187 83.2121 212.405 81.8401 212.273 79.6961V79.6975Z" fill="black"/>
</svg>
